<mxfile host="65bd71144e">
    <diagram id="GyVVJFn1JfBzydTKQjxa" name="Page-1">
        <mxGraphModel dx="469" dy="945" grid="1" gridSize="10" guides="1" tooltips="1" connect="1" arrows="1" fold="1" page="1" pageScale="1" pageWidth="827" pageHeight="1169" math="1" shadow="0">
            <root>
                <mxCell id="0"/>
                <mxCell id="1" parent="0"/>
                <mxCell id="308" value="" style="swimlane;startSize=0;labelBackgroundColor=#000000;fontColor=default;" parent="1" vertex="1">
                    <mxGeometry x="1060.6" y="420" width="300" height="380" as="geometry">
                        <mxRectangle x="1060.6" y="420" width="50" height="40" as="alternateBounds"/>
                    </mxGeometry>
                </mxCell>
                <mxCell id="441" value="" style="shape=table;startSize=30;container=1;collapsible=0;childLayout=tableLayout;fixedRows=1;rowLines=0;fontStyle=1;labelBorderColor=none;" parent="308" vertex="1">
                    <mxGeometry x="34.999999999999886" y="60" width="230" height="270" as="geometry"/>
                </mxCell>
                <mxCell id="442" value="" style="shape=tableRow;horizontal=0;startSize=0;swimlaneHead=0;swimlaneBody=0;top=0;left=0;bottom=0;right=0;collapsible=0;dropTarget=0;fillColor=none;points=[[0,0.5],[1,0.5]];portConstraint=eastwest;" parent="441" vertex="1">
                    <mxGeometry y="30" width="230" height="30" as="geometry"/>
                </mxCell>
                <mxCell id="443" value="$$R_0\ 000$$" style="shape=partialRectangle;html=1;whiteSpace=wrap;connectable=0;fillColor=none;top=0;left=0;bottom=0;right=0;overflow=hidden;pointerEvents=1;" parent="442" vertex="1">
                    <mxGeometry width="51" height="30" as="geometry">
                        <mxRectangle width="51" height="30" as="alternateBounds"/>
                    </mxGeometry>
                </mxCell>
                <mxCell id="444" value="$$Data\ I$$" style="shape=partialRectangle;html=1;whiteSpace=wrap;connectable=0;fillColor=none;top=0;left=0;bottom=0;right=0;align=left;spacingLeft=6;overflow=hidden;" parent="442" vertex="1">
                    <mxGeometry x="51" width="179" height="30" as="geometry">
                        <mxRectangle width="179" height="30" as="alternateBounds"/>
                    </mxGeometry>
                </mxCell>
                <mxCell id="445" value="" style="shape=tableRow;horizontal=0;startSize=0;swimlaneHead=0;swimlaneBody=0;top=0;left=0;bottom=0;right=0;collapsible=0;dropTarget=0;fillColor=none;points=[[0,0.5],[1,0.5]];portConstraint=eastwest;" parent="441" vertex="1">
                    <mxGeometry y="60" width="230" height="30" as="geometry"/>
                </mxCell>
                <mxCell id="446" value="$$R_1\ 001$$" style="shape=partialRectangle;html=1;whiteSpace=wrap;connectable=0;fillColor=none;top=0;left=0;bottom=0;right=0;overflow=hidden;" parent="445" vertex="1">
                    <mxGeometry width="51" height="30" as="geometry">
                        <mxRectangle width="51" height="30" as="alternateBounds"/>
                    </mxGeometry>
                </mxCell>
                <mxCell id="447" value="$$Data\ II$$" style="shape=partialRectangle;html=1;whiteSpace=wrap;connectable=0;fillColor=none;top=0;left=0;bottom=0;right=0;align=left;spacingLeft=6;overflow=hidden;" parent="445" vertex="1">
                    <mxGeometry x="51" width="179" height="30" as="geometry">
                        <mxRectangle width="179" height="30" as="alternateBounds"/>
                    </mxGeometry>
                </mxCell>
                <mxCell id="448" value="" style="shape=tableRow;horizontal=0;startSize=0;swimlaneHead=0;swimlaneBody=0;top=0;left=0;bottom=0;right=0;collapsible=0;dropTarget=0;fillColor=none;points=[[0,0.5],[1,0.5]];portConstraint=eastwest;" parent="441" vertex="1">
                    <mxGeometry y="90" width="230" height="30" as="geometry"/>
                </mxCell>
                <mxCell id="449" value="$$R_2\ 010$$" style="shape=partialRectangle;html=1;whiteSpace=wrap;connectable=0;fillColor=none;top=0;left=0;bottom=0;right=0;overflow=hidden;" parent="448" vertex="1">
                    <mxGeometry width="51" height="30" as="geometry">
                        <mxRectangle width="51" height="30" as="alternateBounds"/>
                    </mxGeometry>
                </mxCell>
                <mxCell id="450" value="$$Data\ III$$" style="shape=partialRectangle;html=1;whiteSpace=wrap;connectable=0;fillColor=none;top=0;left=0;bottom=0;right=0;align=left;spacingLeft=6;overflow=hidden;" parent="448" vertex="1">
                    <mxGeometry x="51" width="179" height="30" as="geometry">
                        <mxRectangle width="179" height="30" as="alternateBounds"/>
                    </mxGeometry>
                </mxCell>
                <mxCell id="451" style="shape=tableRow;horizontal=0;startSize=0;swimlaneHead=0;swimlaneBody=0;top=0;left=0;bottom=0;right=0;collapsible=0;dropTarget=0;fillColor=none;points=[[0,0.5],[1,0.5]];portConstraint=eastwest;" parent="441" vertex="1">
                    <mxGeometry y="120" width="230" height="30" as="geometry"/>
                </mxCell>
                <mxCell id="452" value="$$R_3\ 011$$" style="shape=partialRectangle;html=1;whiteSpace=wrap;connectable=0;fillColor=none;top=0;left=0;bottom=0;right=0;overflow=hidden;" parent="451" vertex="1">
                    <mxGeometry width="51" height="30" as="geometry">
                        <mxRectangle width="51" height="30" as="alternateBounds"/>
                    </mxGeometry>
                </mxCell>
                <mxCell id="453" value="......" style="shape=partialRectangle;html=1;whiteSpace=wrap;connectable=0;fillColor=none;top=0;left=0;bottom=0;right=0;align=left;spacingLeft=6;overflow=hidden;" parent="451" vertex="1">
                    <mxGeometry x="51" width="179" height="30" as="geometry">
                        <mxRectangle width="179" height="30" as="alternateBounds"/>
                    </mxGeometry>
                </mxCell>
                <mxCell id="454" style="shape=tableRow;horizontal=0;startSize=0;swimlaneHead=0;swimlaneBody=0;top=0;left=0;bottom=0;right=0;collapsible=0;dropTarget=0;fillColor=none;points=[[0,0.5],[1,0.5]];portConstraint=eastwest;" parent="441" vertex="1">
                    <mxGeometry y="150" width="230" height="30" as="geometry"/>
                </mxCell>
                <mxCell id="455" value="$$R_4\ 100$$" style="shape=partialRectangle;html=1;whiteSpace=wrap;connectable=0;fillColor=none;top=0;left=0;bottom=0;right=0;overflow=hidden;" parent="454" vertex="1">
                    <mxGeometry width="51" height="30" as="geometry">
                        <mxRectangle width="51" height="30" as="alternateBounds"/>
                    </mxGeometry>
                </mxCell>
                <mxCell id="456" value="......" style="shape=partialRectangle;html=1;whiteSpace=wrap;connectable=0;fillColor=none;top=0;left=0;bottom=0;right=0;align=left;spacingLeft=6;overflow=hidden;" parent="454" vertex="1">
                    <mxGeometry x="51" width="179" height="30" as="geometry">
                        <mxRectangle width="179" height="30" as="alternateBounds"/>
                    </mxGeometry>
                </mxCell>
                <mxCell id="457" style="shape=tableRow;horizontal=0;startSize=0;swimlaneHead=0;swimlaneBody=0;top=0;left=0;bottom=0;right=0;collapsible=0;dropTarget=0;fillColor=none;points=[[0,0.5],[1,0.5]];portConstraint=eastwest;" parent="441" vertex="1">
                    <mxGeometry y="180" width="230" height="30" as="geometry"/>
                </mxCell>
                <mxCell id="458" value="$$R_5\ 101$$" style="shape=partialRectangle;html=1;whiteSpace=wrap;connectable=0;fillColor=none;top=0;left=0;bottom=0;right=0;overflow=hidden;" parent="457" vertex="1">
                    <mxGeometry width="51" height="30" as="geometry">
                        <mxRectangle width="51" height="30" as="alternateBounds"/>
                    </mxGeometry>
                </mxCell>
                <mxCell id="459" value="......" style="shape=partialRectangle;html=1;whiteSpace=wrap;connectable=0;fillColor=none;top=0;left=0;bottom=0;right=0;align=left;spacingLeft=6;overflow=hidden;" parent="457" vertex="1">
                    <mxGeometry x="51" width="179" height="30" as="geometry">
                        <mxRectangle width="179" height="30" as="alternateBounds"/>
                    </mxGeometry>
                </mxCell>
                <mxCell id="460" style="shape=tableRow;horizontal=0;startSize=0;swimlaneHead=0;swimlaneBody=0;top=0;left=0;bottom=0;right=0;collapsible=0;dropTarget=0;fillColor=none;points=[[0,0.5],[1,0.5]];portConstraint=eastwest;" parent="441" vertex="1">
                    <mxGeometry y="210" width="230" height="30" as="geometry"/>
                </mxCell>
                <mxCell id="461" value="$$R_6\ 110$$" style="shape=partialRectangle;html=1;whiteSpace=wrap;connectable=0;fillColor=none;top=0;left=0;bottom=0;right=0;overflow=hidden;" parent="460" vertex="1">
                    <mxGeometry width="51" height="30" as="geometry">
                        <mxRectangle width="51" height="30" as="alternateBounds"/>
                    </mxGeometry>
                </mxCell>
                <mxCell id="462" value="......" style="shape=partialRectangle;html=1;whiteSpace=wrap;connectable=0;fillColor=none;top=0;left=0;bottom=0;right=0;align=left;spacingLeft=6;overflow=hidden;" parent="460" vertex="1">
                    <mxGeometry x="51" width="179" height="30" as="geometry">
                        <mxRectangle width="179" height="30" as="alternateBounds"/>
                    </mxGeometry>
                </mxCell>
                <mxCell id="463" style="shape=tableRow;horizontal=0;startSize=0;swimlaneHead=0;swimlaneBody=0;top=0;left=0;bottom=0;right=0;collapsible=0;dropTarget=0;fillColor=none;points=[[0,0.5],[1,0.5]];portConstraint=eastwest;" parent="441" vertex="1">
                    <mxGeometry y="240" width="230" height="30" as="geometry"/>
                </mxCell>
                <mxCell id="464" value="$$R_7\ 111$$" style="shape=partialRectangle;html=1;whiteSpace=wrap;connectable=0;fillColor=none;top=0;left=0;bottom=0;right=0;overflow=hidden;" parent="463" vertex="1">
                    <mxGeometry width="51" height="30" as="geometry">
                        <mxRectangle width="51" height="30" as="alternateBounds"/>
                    </mxGeometry>
                </mxCell>
                <mxCell id="465" value="......" style="shape=partialRectangle;html=1;whiteSpace=wrap;connectable=0;fillColor=none;top=0;left=0;bottom=0;right=0;align=left;spacingLeft=6;overflow=hidden;" parent="463" vertex="1">
                    <mxGeometry x="51" width="179" height="30" as="geometry">
                        <mxRectangle width="179" height="30" as="alternateBounds"/>
                    </mxGeometry>
                </mxCell>
                <mxCell id="466" value="&lt;font style=&quot;font-size: 11px;&quot;&gt;$$Address$$&lt;/font&gt;" style="text;html=1;align=center;verticalAlign=middle;resizable=0;points=[];autosize=1;strokeColor=none;fillColor=none;fontSize=7;labelBackgroundColor=none;" parent="308" vertex="1">
                    <mxGeometry x="14.999999999999886" y="65" width="90" height="30" as="geometry"/>
                </mxCell>
                <mxCell id="467" value="" style="verticalLabelPosition=bottom;shadow=0;dashed=0;align=center;html=1;verticalAlign=top;strokeWidth=1;shape=mxgraph.mockup.markup.line;strokeColor=#999999;labelBorderColor=none;fontSize=17;fillColor=default;" parent="308" vertex="1">
                    <mxGeometry x="34.999999999999886" y="110" width="230" height="20" as="geometry"/>
                </mxCell>
                <mxCell id="468" value="" style="verticalLabelPosition=bottom;shadow=0;dashed=0;align=center;html=1;verticalAlign=top;strokeWidth=1;shape=mxgraph.mockup.markup.line;strokeColor=#999999;labelBorderColor=none;fontSize=17;fillColor=default;" parent="308" vertex="1">
                    <mxGeometry x="34.999999999999886" y="140" width="230" height="20" as="geometry"/>
                </mxCell>
                <mxCell id="469" value="" style="verticalLabelPosition=bottom;shadow=0;dashed=0;align=center;html=1;verticalAlign=top;strokeWidth=1;shape=mxgraph.mockup.markup.line;strokeColor=#999999;labelBorderColor=none;fontSize=17;fillColor=default;" parent="308" vertex="1">
                    <mxGeometry x="34.999999999999886" y="170" width="230" height="20" as="geometry"/>
                </mxCell>
                <mxCell id="470" value="" style="verticalLabelPosition=bottom;shadow=0;dashed=0;align=center;html=1;verticalAlign=top;strokeWidth=1;shape=mxgraph.mockup.markup.line;strokeColor=#999999;labelBorderColor=none;fontSize=17;fillColor=default;" parent="308" vertex="1">
                    <mxGeometry x="34.999999999999886" y="320" width="230" height="20" as="geometry"/>
                </mxCell>
                <mxCell id="471" value="" style="verticalLabelPosition=bottom;shadow=0;dashed=0;align=center;html=1;verticalAlign=top;strokeWidth=1;shape=mxgraph.mockup.markup.line;strokeColor=#999999;labelBorderColor=none;fontSize=17;fillColor=default;" parent="308" vertex="1">
                    <mxGeometry x="34.999999999999886" y="261" width="230" height="20" as="geometry"/>
                </mxCell>
                <mxCell id="472" value="" style="verticalLabelPosition=bottom;shadow=0;dashed=0;align=center;html=1;verticalAlign=top;strokeWidth=1;shape=mxgraph.mockup.markup.line;strokeColor=#999999;labelBorderColor=none;fontSize=17;fillColor=default;" parent="308" vertex="1">
                    <mxGeometry x="34.999999999999886" y="290" width="230" height="20" as="geometry"/>
                </mxCell>
                <mxCell id="473" value="" style="verticalLabelPosition=bottom;shadow=0;dashed=0;align=center;html=1;verticalAlign=top;strokeWidth=1;shape=mxgraph.mockup.markup.line;strokeColor=#999999;labelBorderColor=none;fontSize=17;fillColor=default;" parent="308" vertex="1">
                    <mxGeometry x="34.999999999999886" y="230" width="230" height="20" as="geometry"/>
                </mxCell>
                <mxCell id="474" value="" style="verticalLabelPosition=bottom;shadow=0;dashed=0;align=center;html=1;verticalAlign=top;strokeWidth=1;shape=mxgraph.mockup.markup.line;strokeColor=#999999;labelBorderColor=none;fontSize=17;fillColor=default;" parent="308" vertex="1">
                    <mxGeometry x="34.999999999999886" y="200" width="230" height="20" as="geometry"/>
                </mxCell>
                <mxCell id="477" value="&lt;font style=&quot;font-size: 15px;&quot;&gt;$$SR_2$$&lt;/font&gt;" style="text;html=1;align=center;verticalAlign=middle;resizable=0;points=[];autosize=1;strokeColor=none;fillColor=none;fontSize=10;fontColor=default;" parent="308" vertex="1">
                    <mxGeometry x="-20" y="350" width="90" height="30" as="geometry"/>
                </mxCell>
                <mxCell id="478" value="&lt;font style=&quot;font-size: 15px;&quot;&gt;$$SR_1$$&lt;/font&gt;" style="text;html=1;align=center;verticalAlign=middle;resizable=0;points=[];autosize=1;strokeColor=none;fillColor=none;fontSize=10;fontColor=default;" parent="308" vertex="1">
                    <mxGeometry x="199.4" y="350" width="90" height="30" as="geometry"/>
                </mxCell>
                <mxCell id="481" value="&lt;font style=&quot;font-size: 15px;&quot;&gt;$$DR$$&lt;/font&gt;" style="text;html=1;align=center;verticalAlign=middle;resizable=0;points=[];autosize=1;strokeColor=none;fillColor=none;fontSize=10;fontColor=default;" parent="308" vertex="1">
                    <mxGeometry x="-15" y="30" width="80" height="30" as="geometry"/>
                </mxCell>
                <mxCell id="479" value="" style="endArrow=classic;html=1;fontSize=18;fontColor=default;entryX=0.002;entryY=0.966;entryDx=0;entryDy=0;entryPerimeter=0;" parent="1" target="308" edge="1">
                    <mxGeometry width="50" height="50" relative="1" as="geometry">
                        <mxPoint x="940" y="840" as="sourcePoint"/>
                        <mxPoint x="970.6" y="740" as="targetPoint"/>
                        <Array as="points">
                            <mxPoint x="940" y="787"/>
                        </Array>
                    </mxGeometry>
                </mxCell>
                <mxCell id="480" value="" style="endArrow=classic;html=1;fontSize=18;fontColor=default;" parent="1" edge="1">
                    <mxGeometry width="50" height="50" relative="1" as="geometry">
                        <mxPoint x="1470.6" y="790" as="sourcePoint"/>
                        <mxPoint x="1360.6" y="790" as="targetPoint"/>
                    </mxGeometry>
                </mxCell>
                <mxCell id="482" value="" style="endArrow=classic;html=1;fontSize=18;fontColor=default;entryX=0.002;entryY=0.966;entryDx=0;entryDy=0;entryPerimeter=0;" parent="1" edge="1">
                    <mxGeometry width="50" height="50" relative="1" as="geometry">
                        <mxPoint x="870" y="465" as="sourcePoint"/>
                        <mxPoint x="1060.6" y="465.0799999999999" as="targetPoint"/>
                    </mxGeometry>
                </mxCell>
                <mxCell id="475" value="&lt;font style=&quot;font-size: 18px;&quot;&gt;Register&lt;/font&gt;" style="text;html=1;align=center;verticalAlign=middle;resizable=0;points=[];autosize=1;strokeColor=none;fillColor=none;fontSize=10;fontColor=default;" parent="1" vertex="1">
                    <mxGeometry x="1060.6" y="390" width="90" height="40" as="geometry"/>
                </mxCell>
                <mxCell id="602" value="ALU" style="text;html=1;align=center;verticalAlign=middle;resizable=0;points=[];autosize=1;strokeColor=none;fillColor=none;fontSize=16;" vertex="1" parent="1">
                    <mxGeometry x="1185" y="930" width="50" height="30" as="geometry"/>
                </mxCell>
                <mxCell id="604" value="" style="endArrow=classic;html=1;fontSize=16;exitX=0.456;exitY=1.122;exitDx=0;exitDy=0;exitPerimeter=0;" edge="1" parent="1">
                    <mxGeometry width="50" height="50" relative="1" as="geometry">
                        <mxPoint x="1301.04" y="800.6599999999999" as="sourcePoint"/>
                        <mxPoint x="1301" y="960" as="targetPoint"/>
                    </mxGeometry>
                </mxCell>
                <mxCell id="605" value="" style="endArrow=classic;html=1;fontSize=16;exitX=0.456;exitY=1.122;exitDx=0;exitDy=0;exitPerimeter=0;" edge="1" parent="1">
                    <mxGeometry width="50" height="50" relative="1" as="geometry">
                        <mxPoint x="1120.04" y="799.9999999999999" as="sourcePoint"/>
                        <mxPoint x="1120" y="959.34" as="targetPoint"/>
                    </mxGeometry>
                </mxCell>
                <mxCell id="592" value="" style="endArrow=none;html=1;fontSize=16;" edge="1" parent="1">
                    <mxGeometry width="50" height="50" relative="1" as="geometry">
                        <mxPoint x="1080" y="960" as="sourcePoint"/>
                        <mxPoint x="1170" y="960" as="targetPoint"/>
                    </mxGeometry>
                </mxCell>
                <mxCell id="594" value="" style="endArrow=none;html=1;fontSize=16;" edge="1" parent="1">
                    <mxGeometry width="50" height="50" relative="1" as="geometry">
                        <mxPoint x="1170" y="960" as="sourcePoint"/>
                        <mxPoint x="1210" y="1000" as="targetPoint"/>
                    </mxGeometry>
                </mxCell>
                <mxCell id="595" value="" style="endArrow=none;html=1;fontSize=16;" edge="1" parent="1">
                    <mxGeometry width="50" height="50" relative="1" as="geometry">
                        <mxPoint x="1250" y="960" as="sourcePoint"/>
                        <mxPoint x="1340" y="960" as="targetPoint"/>
                    </mxGeometry>
                </mxCell>
                <mxCell id="596" value="" style="endArrow=none;html=1;fontSize=16;" edge="1" parent="1">
                    <mxGeometry width="50" height="50" relative="1" as="geometry">
                        <mxPoint x="1210" y="1000" as="sourcePoint"/>
                        <mxPoint x="1250" y="960" as="targetPoint"/>
                    </mxGeometry>
                </mxCell>
                <mxCell id="597" value="" style="endArrow=none;html=1;fontSize=16;" edge="1" parent="1">
                    <mxGeometry width="50" height="50" relative="1" as="geometry">
                        <mxPoint x="1080" y="960" as="sourcePoint"/>
                        <mxPoint x="1150" y="1050" as="targetPoint"/>
                    </mxGeometry>
                </mxCell>
                <mxCell id="598" value="" style="endArrow=none;html=1;fontSize=16;" edge="1" parent="1">
                    <mxGeometry width="50" height="50" relative="1" as="geometry">
                        <mxPoint x="1340" y="960" as="sourcePoint"/>
                        <mxPoint x="1270" y="1050" as="targetPoint"/>
                    </mxGeometry>
                </mxCell>
                <mxCell id="599" value="" style="endArrow=none;html=1;fontSize=16;" edge="1" parent="1">
                    <mxGeometry width="50" height="50" relative="1" as="geometry">
                        <mxPoint x="1150" y="1050" as="sourcePoint"/>
                        <mxPoint x="1270" y="1050" as="targetPoint"/>
                    </mxGeometry>
                </mxCell>
                <mxCell id="600" value="$$A$$" style="text;html=1;align=center;verticalAlign=middle;resizable=0;points=[];autosize=1;strokeColor=none;fillColor=none;fontSize=16;" vertex="1" parent="1">
                    <mxGeometry x="1250" y="970" width="70" height="30" as="geometry"/>
                </mxCell>
                <mxCell id="601" value="$$B$$" style="text;html=1;align=center;verticalAlign=middle;resizable=0;points=[];autosize=1;strokeColor=none;fillColor=none;fontSize=16;" vertex="1" parent="1">
                    <mxGeometry x="1100" y="970" width="70" height="30" as="geometry"/>
                </mxCell>
                <mxCell id="607" value="" style="edgeStyle=elbowEdgeStyle;elbow=vertical;endArrow=classic;html=1;curved=0;rounded=0;endSize=8;startSize=8;fontSize=16;" edge="1" parent="1">
                    <mxGeometry width="50" height="50" relative="1" as="geometry">
                        <mxPoint x="1211" y="1050" as="sourcePoint"/>
                        <mxPoint x="870" y="465" as="targetPoint"/>
                        <Array as="points">
                            <mxPoint x="1050" y="1140"/>
                        </Array>
                    </mxGeometry>
                </mxCell>
                <mxCell id="609" value="" style="shape=table;startSize=30;container=1;collapsible=0;childLayout=tableLayout;fixedRows=1;rowLines=0;fontStyle=1;labelBorderColor=none;" vertex="1" parent="1">
                    <mxGeometry x="2233.84" y="370" width="230" height="390" as="geometry"/>
                </mxCell>
                <mxCell id="610" value="" style="shape=tableRow;horizontal=0;startSize=0;swimlaneHead=0;swimlaneBody=0;top=0;left=0;bottom=0;right=0;collapsible=0;dropTarget=0;fillColor=none;points=[[0,0.5],[1,0.5]];portConstraint=eastwest;" vertex="1" parent="609">
                    <mxGeometry y="30" width="230" height="30" as="geometry"/>
                </mxCell>
                <mxCell id="611" value="X0001" style="shape=partialRectangle;html=1;whiteSpace=wrap;connectable=0;fillColor=none;top=0;left=0;bottom=0;right=0;overflow=hidden;pointerEvents=1;" vertex="1" parent="610">
                    <mxGeometry width="51" height="30" as="geometry">
                        <mxRectangle width="51" height="30" as="alternateBounds"/>
                    </mxGeometry>
                </mxCell>
                <mxCell id="612" value="$$Ins\ I$$" style="shape=partialRectangle;html=1;whiteSpace=wrap;connectable=0;fillColor=none;top=0;left=0;bottom=0;right=0;align=left;spacingLeft=6;overflow=hidden;" vertex="1" parent="610">
                    <mxGeometry x="51" width="179" height="30" as="geometry">
                        <mxRectangle width="179" height="30" as="alternateBounds"/>
                    </mxGeometry>
                </mxCell>
                <mxCell id="613" value="" style="shape=tableRow;horizontal=0;startSize=0;swimlaneHead=0;swimlaneBody=0;top=0;left=0;bottom=0;right=0;collapsible=0;dropTarget=0;fillColor=none;points=[[0,0.5],[1,0.5]];portConstraint=eastwest;" vertex="1" parent="609">
                    <mxGeometry y="60" width="230" height="30" as="geometry"/>
                </mxCell>
                <mxCell id="614" value="X0002" style="shape=partialRectangle;html=1;whiteSpace=wrap;connectable=0;fillColor=none;top=0;left=0;bottom=0;right=0;overflow=hidden;" vertex="1" parent="613">
                    <mxGeometry width="51" height="30" as="geometry">
                        <mxRectangle width="51" height="30" as="alternateBounds"/>
                    </mxGeometry>
                </mxCell>
                <mxCell id="615" value="$$Ins\ II$$" style="shape=partialRectangle;html=1;whiteSpace=wrap;connectable=0;fillColor=none;top=0;left=0;bottom=0;right=0;align=left;spacingLeft=6;overflow=hidden;" vertex="1" parent="613">
                    <mxGeometry x="51" width="179" height="30" as="geometry">
                        <mxRectangle width="179" height="30" as="alternateBounds"/>
                    </mxGeometry>
                </mxCell>
                <mxCell id="616" value="" style="shape=tableRow;horizontal=0;startSize=0;swimlaneHead=0;swimlaneBody=0;top=0;left=0;bottom=0;right=0;collapsible=0;dropTarget=0;fillColor=none;points=[[0,0.5],[1,0.5]];portConstraint=eastwest;" vertex="1" parent="609">
                    <mxGeometry y="90" width="230" height="30" as="geometry"/>
                </mxCell>
                <mxCell id="617" value="X0003" style="shape=partialRectangle;html=1;whiteSpace=wrap;connectable=0;fillColor=none;top=0;left=0;bottom=0;right=0;overflow=hidden;" vertex="1" parent="616">
                    <mxGeometry width="51" height="30" as="geometry">
                        <mxRectangle width="51" height="30" as="alternateBounds"/>
                    </mxGeometry>
                </mxCell>
                <mxCell id="618" value="$$Ins\ III$$" style="shape=partialRectangle;html=1;whiteSpace=wrap;connectable=0;fillColor=none;top=0;left=0;bottom=0;right=0;align=left;spacingLeft=6;overflow=hidden;" vertex="1" parent="616">
                    <mxGeometry x="51" width="179" height="30" as="geometry">
                        <mxRectangle width="179" height="30" as="alternateBounds"/>
                    </mxGeometry>
                </mxCell>
                <mxCell id="619" style="shape=tableRow;horizontal=0;startSize=0;swimlaneHead=0;swimlaneBody=0;top=0;left=0;bottom=0;right=0;collapsible=0;dropTarget=0;fillColor=none;points=[[0,0.5],[1,0.5]];portConstraint=eastwest;" vertex="1" parent="609">
                    <mxGeometry y="120" width="230" height="30" as="geometry"/>
                </mxCell>
                <mxCell id="620" value="X0004" style="shape=partialRectangle;html=1;whiteSpace=wrap;connectable=0;fillColor=none;top=0;left=0;bottom=0;right=0;overflow=hidden;" vertex="1" parent="619">
                    <mxGeometry width="51" height="30" as="geometry">
                        <mxRectangle width="51" height="30" as="alternateBounds"/>
                    </mxGeometry>
                </mxCell>
                <mxCell id="621" value="......" style="shape=partialRectangle;html=1;whiteSpace=wrap;connectable=0;fillColor=none;top=0;left=0;bottom=0;right=0;align=left;spacingLeft=6;overflow=hidden;" vertex="1" parent="619">
                    <mxGeometry x="51" width="179" height="30" as="geometry">
                        <mxRectangle width="179" height="30" as="alternateBounds"/>
                    </mxGeometry>
                </mxCell>
                <mxCell id="622" style="shape=tableRow;horizontal=0;startSize=0;swimlaneHead=0;swimlaneBody=0;top=0;left=0;bottom=0;right=0;collapsible=0;dropTarget=0;fillColor=none;points=[[0,0.5],[1,0.5]];portConstraint=eastwest;" vertex="1" parent="609">
                    <mxGeometry y="150" width="230" height="30" as="geometry"/>
                </mxCell>
                <mxCell id="623" value="X0005" style="shape=partialRectangle;html=1;whiteSpace=wrap;connectable=0;fillColor=none;top=0;left=0;bottom=0;right=0;overflow=hidden;" vertex="1" parent="622">
                    <mxGeometry width="51" height="30" as="geometry">
                        <mxRectangle width="51" height="30" as="alternateBounds"/>
                    </mxGeometry>
                </mxCell>
                <mxCell id="624" value="......" style="shape=partialRectangle;html=1;whiteSpace=wrap;connectable=0;fillColor=none;top=0;left=0;bottom=0;right=0;align=left;spacingLeft=6;overflow=hidden;" vertex="1" parent="622">
                    <mxGeometry x="51" width="179" height="30" as="geometry">
                        <mxRectangle width="179" height="30" as="alternateBounds"/>
                    </mxGeometry>
                </mxCell>
                <mxCell id="625" style="shape=tableRow;horizontal=0;startSize=0;swimlaneHead=0;swimlaneBody=0;top=0;left=0;bottom=0;right=0;collapsible=0;dropTarget=0;fillColor=none;points=[[0,0.5],[1,0.5]];portConstraint=eastwest;" vertex="1" parent="609">
                    <mxGeometry y="180" width="230" height="30" as="geometry"/>
                </mxCell>
                <mxCell id="626" value="....." style="shape=partialRectangle;html=1;whiteSpace=wrap;connectable=0;fillColor=none;top=0;left=0;bottom=0;right=0;overflow=hidden;" vertex="1" parent="625">
                    <mxGeometry width="51" height="30" as="geometry">
                        <mxRectangle width="51" height="30" as="alternateBounds"/>
                    </mxGeometry>
                </mxCell>
                <mxCell id="627" value="......" style="shape=partialRectangle;html=1;whiteSpace=wrap;connectable=0;fillColor=none;top=0;left=0;bottom=0;right=0;align=left;spacingLeft=6;overflow=hidden;" vertex="1" parent="625">
                    <mxGeometry x="51" width="179" height="30" as="geometry">
                        <mxRectangle width="179" height="30" as="alternateBounds"/>
                    </mxGeometry>
                </mxCell>
                <mxCell id="628" style="shape=tableRow;horizontal=0;startSize=0;swimlaneHead=0;swimlaneBody=0;top=0;left=0;bottom=0;right=0;collapsible=0;dropTarget=0;fillColor=none;points=[[0,0.5],[1,0.5]];portConstraint=eastwest;" vertex="1" parent="609">
                    <mxGeometry y="210" width="230" height="30" as="geometry"/>
                </mxCell>
                <mxCell id="629" value="....." style="shape=partialRectangle;html=1;whiteSpace=wrap;connectable=0;fillColor=none;top=0;left=0;bottom=0;right=0;overflow=hidden;" vertex="1" parent="628">
                    <mxGeometry width="51" height="30" as="geometry">
                        <mxRectangle width="51" height="30" as="alternateBounds"/>
                    </mxGeometry>
                </mxCell>
                <mxCell id="630" value="......" style="shape=partialRectangle;html=1;whiteSpace=wrap;connectable=0;fillColor=none;top=0;left=0;bottom=0;right=0;align=left;spacingLeft=6;overflow=hidden;" vertex="1" parent="628">
                    <mxGeometry x="51" width="179" height="30" as="geometry">
                        <mxRectangle width="179" height="30" as="alternateBounds"/>
                    </mxGeometry>
                </mxCell>
                <mxCell id="631" style="shape=tableRow;horizontal=0;startSize=0;swimlaneHead=0;swimlaneBody=0;top=0;left=0;bottom=0;right=0;collapsible=0;dropTarget=0;fillColor=none;points=[[0,0.5],[1,0.5]];portConstraint=eastwest;" vertex="1" parent="609">
                    <mxGeometry y="240" width="230" height="30" as="geometry"/>
                </mxCell>
                <mxCell id="632" value="XFFFC" style="shape=partialRectangle;html=1;whiteSpace=wrap;connectable=0;fillColor=none;top=0;left=0;bottom=0;right=0;overflow=hidden;" vertex="1" parent="631">
                    <mxGeometry width="51" height="30" as="geometry">
                        <mxRectangle width="51" height="30" as="alternateBounds"/>
                    </mxGeometry>
                </mxCell>
                <mxCell id="633" value="$$Ins\ IV$$" style="shape=partialRectangle;html=1;whiteSpace=wrap;connectable=0;fillColor=none;top=0;left=0;bottom=0;right=0;align=left;spacingLeft=6;overflow=hidden;" vertex="1" parent="631">
                    <mxGeometry x="51" width="179" height="30" as="geometry">
                        <mxRectangle width="179" height="30" as="alternateBounds"/>
                    </mxGeometry>
                </mxCell>
                <mxCell id="634" style="shape=tableRow;horizontal=0;startSize=0;swimlaneHead=0;swimlaneBody=0;top=0;left=0;bottom=0;right=0;collapsible=0;dropTarget=0;fillColor=none;points=[[0,0.5],[1,0.5]];portConstraint=eastwest;" vertex="1" parent="609">
                    <mxGeometry y="270" width="230" height="30" as="geometry"/>
                </mxCell>
                <mxCell id="635" value="XFFFC" style="shape=partialRectangle;html=1;whiteSpace=wrap;connectable=0;fillColor=none;top=0;left=0;bottom=0;right=0;overflow=hidden;" vertex="1" parent="634">
                    <mxGeometry width="51" height="30" as="geometry">
                        <mxRectangle width="51" height="30" as="alternateBounds"/>
                    </mxGeometry>
                </mxCell>
                <mxCell id="636" value="$$Data\ I$$" style="shape=partialRectangle;html=1;whiteSpace=wrap;connectable=0;fillColor=none;top=0;left=0;bottom=0;right=0;align=left;spacingLeft=6;overflow=hidden;" vertex="1" parent="634">
                    <mxGeometry x="51" width="179" height="30" as="geometry">
                        <mxRectangle width="179" height="30" as="alternateBounds"/>
                    </mxGeometry>
                </mxCell>
                <mxCell id="637" style="shape=tableRow;horizontal=0;startSize=0;swimlaneHead=0;swimlaneBody=0;top=0;left=0;bottom=0;right=0;collapsible=0;dropTarget=0;fillColor=none;points=[[0,0.5],[1,0.5]];portConstraint=eastwest;" vertex="1" parent="609">
                    <mxGeometry y="300" width="230" height="30" as="geometry"/>
                </mxCell>
                <mxCell id="638" value="XFFFD" style="shape=partialRectangle;html=1;whiteSpace=wrap;connectable=0;fillColor=none;top=0;left=0;bottom=0;right=0;overflow=hidden;" vertex="1" parent="637">
                    <mxGeometry width="51" height="30" as="geometry">
                        <mxRectangle width="51" height="30" as="alternateBounds"/>
                    </mxGeometry>
                </mxCell>
                <mxCell id="639" value="$$Data\ II$$" style="shape=partialRectangle;html=1;whiteSpace=wrap;connectable=0;fillColor=none;top=0;left=0;bottom=0;right=0;align=left;spacingLeft=6;overflow=hidden;" vertex="1" parent="637">
                    <mxGeometry x="51" width="179" height="30" as="geometry">
                        <mxRectangle width="179" height="30" as="alternateBounds"/>
                    </mxGeometry>
                </mxCell>
                <mxCell id="640" style="shape=tableRow;horizontal=0;startSize=0;swimlaneHead=0;swimlaneBody=0;top=0;left=0;bottom=0;right=0;collapsible=0;dropTarget=0;fillColor=none;points=[[0,0.5],[1,0.5]];portConstraint=eastwest;" vertex="1" parent="609">
                    <mxGeometry y="330" width="230" height="30" as="geometry"/>
                </mxCell>
                <mxCell id="641" value="XFFFE" style="shape=partialRectangle;html=1;whiteSpace=wrap;connectable=0;fillColor=none;top=0;left=0;bottom=0;right=0;overflow=hidden;" vertex="1" parent="640">
                    <mxGeometry width="51" height="30" as="geometry">
                        <mxRectangle width="51" height="30" as="alternateBounds"/>
                    </mxGeometry>
                </mxCell>
                <mxCell id="642" value="$$Data\&amp;nbsp;III$$" style="shape=partialRectangle;html=1;whiteSpace=wrap;connectable=0;fillColor=none;top=0;left=0;bottom=0;right=0;align=left;spacingLeft=6;overflow=hidden;" vertex="1" parent="640">
                    <mxGeometry x="51" width="179" height="30" as="geometry">
                        <mxRectangle width="179" height="30" as="alternateBounds"/>
                    </mxGeometry>
                </mxCell>
                <mxCell id="643" style="shape=tableRow;horizontal=0;startSize=0;swimlaneHead=0;swimlaneBody=0;top=0;left=0;bottom=0;right=0;collapsible=0;dropTarget=0;fillColor=none;points=[[0,0.5],[1,0.5]];portConstraint=eastwest;" vertex="1" parent="609">
                    <mxGeometry y="360" width="230" height="30" as="geometry"/>
                </mxCell>
                <mxCell id="644" value="XFFFF" style="shape=partialRectangle;html=1;whiteSpace=wrap;connectable=0;fillColor=none;top=0;left=0;bottom=0;right=0;overflow=hidden;" vertex="1" parent="643">
                    <mxGeometry width="51" height="30" as="geometry">
                        <mxRectangle width="51" height="30" as="alternateBounds"/>
                    </mxGeometry>
                </mxCell>
                <mxCell id="645" value="......" style="shape=partialRectangle;html=1;whiteSpace=wrap;connectable=0;fillColor=none;top=0;left=0;bottom=0;right=0;align=left;spacingLeft=6;overflow=hidden;" vertex="1" parent="643">
                    <mxGeometry x="51" width="179" height="30" as="geometry">
                        <mxRectangle width="179" height="30" as="alternateBounds"/>
                    </mxGeometry>
                </mxCell>
                <mxCell id="646" value="" style="endArrow=classic;html=1;entryX=0;entryY=0.5;entryDx=0;entryDy=0;" edge="1" target="610" parent="1">
                    <mxGeometry width="50" height="50" relative="1" as="geometry">
                        <mxPoint x="2099.84" y="415" as="sourcePoint"/>
                        <mxPoint x="2159.84" y="400" as="targetPoint"/>
                    </mxGeometry>
                </mxCell>
                <mxCell id="647" value="" style="endArrow=classic;html=1;entryX=0;entryY=0.5;entryDx=0;entryDy=0;" edge="1" target="643" parent="1">
                    <mxGeometry width="50" height="50" relative="1" as="geometry">
                        <mxPoint x="2099.84" y="745" as="sourcePoint"/>
                        <mxPoint x="2213.84" y="740" as="targetPoint"/>
                    </mxGeometry>
                </mxCell>
                <mxCell id="648" value="$$2^{16}$$" style="text;html=1;align=center;verticalAlign=middle;resizable=0;points=[];autosize=1;strokeColor=none;fillColor=none;" vertex="1" parent="1">
                    <mxGeometry x="2090" y="561" width="80" height="30" as="geometry"/>
                </mxCell>
                <mxCell id="649" value="Address Space" style="text;html=1;align=center;verticalAlign=middle;resizable=0;points=[];autosize=1;strokeColor=none;fillColor=none;" vertex="1" parent="1">
                    <mxGeometry x="2133.84" y="561" width="100" height="30" as="geometry"/>
                </mxCell>
                <mxCell id="650" value="" style="group" vertex="1" connectable="0" parent="1">
                    <mxGeometry x="2129.52" y="420" width="0.9600000000000364" height="320" as="geometry"/>
                </mxCell>
                <mxCell id="651" value="" style="endArrow=classic;html=1;exitX=0.496;exitY=0.025;exitDx=0;exitDy=0;exitPerimeter=0;" edge="1" parent="650">
                    <mxGeometry width="50" height="50" relative="1" as="geometry">
                        <mxPoint y="141.75" as="sourcePoint"/>
                        <mxPoint x="0.32000000000005" as="targetPoint"/>
                    </mxGeometry>
                </mxCell>
                <mxCell id="652" value="" style="endArrow=classic;html=1;exitX=0.508;exitY=0.959;exitDx=0;exitDy=0;exitPerimeter=0;" edge="1" parent="650">
                    <mxGeometry width="50" height="50" relative="1" as="geometry">
                        <mxPoint x="0.9600000000000364" y="169.76999999999998" as="sourcePoint"/>
                        <mxPoint x="0.32000000000005" y="320" as="targetPoint"/>
                    </mxGeometry>
                </mxCell>
                <mxCell id="653" value="&lt;font style=&quot;font-size: 15px;&quot;&gt;$$Instruction\ or\ Data$$&lt;/font&gt;" style="text;html=1;align=center;verticalAlign=middle;resizable=0;points=[];autosize=1;strokeColor=none;fillColor=none;fontSize=17;labelBackgroundColor=none;fontColor=default;" vertex="1" parent="1">
                    <mxGeometry x="2280.48" y="370" width="190" height="30" as="geometry"/>
                </mxCell>
                <mxCell id="654" value="" style="verticalLabelPosition=bottom;shadow=0;dashed=0;align=center;html=1;verticalAlign=top;strokeWidth=1;shape=mxgraph.mockup.markup.line;strokeColor=#999999;labelBorderColor=none;fontSize=17;fillColor=default;" vertex="1" parent="1">
                    <mxGeometry x="2233.84" y="420" width="230" height="20" as="geometry"/>
                </mxCell>
                <mxCell id="655" value="" style="verticalLabelPosition=bottom;shadow=0;dashed=0;align=center;html=1;verticalAlign=top;strokeWidth=1;shape=mxgraph.mockup.markup.line;strokeColor=#999999;labelBorderColor=none;fontSize=17;fillColor=default;" vertex="1" parent="1">
                    <mxGeometry x="2233.84" y="450" width="230" height="20" as="geometry"/>
                </mxCell>
                <mxCell id="656" value="" style="verticalLabelPosition=bottom;shadow=0;dashed=0;align=center;html=1;verticalAlign=top;strokeWidth=1;shape=mxgraph.mockup.markup.line;strokeColor=#999999;labelBorderColor=none;fontSize=17;fillColor=default;" vertex="1" parent="1">
                    <mxGeometry x="2233.84" y="480" width="230" height="20" as="geometry"/>
                </mxCell>
                <mxCell id="657" value="" style="verticalLabelPosition=bottom;shadow=0;dashed=0;align=center;html=1;verticalAlign=top;strokeWidth=1;shape=mxgraph.mockup.markup.line;strokeColor=#999999;labelBorderColor=none;fontSize=17;fillColor=default;" vertex="1" parent="1">
                    <mxGeometry x="2233.84" y="720" width="230" height="20" as="geometry"/>
                </mxCell>
                <mxCell id="658" value="" style="verticalLabelPosition=bottom;shadow=0;dashed=0;align=center;html=1;verticalAlign=top;strokeWidth=1;shape=mxgraph.mockup.markup.line;strokeColor=#999999;labelBorderColor=none;fontSize=17;fillColor=default;" vertex="1" parent="1">
                    <mxGeometry x="2233.84" y="660" width="230" height="20" as="geometry"/>
                </mxCell>
                <mxCell id="659" value="" style="verticalLabelPosition=bottom;shadow=0;dashed=0;align=center;html=1;verticalAlign=top;strokeWidth=1;shape=mxgraph.mockup.markup.line;strokeColor=#999999;labelBorderColor=none;fontSize=17;fillColor=default;" vertex="1" parent="1">
                    <mxGeometry x="2233.84" y="690" width="230" height="20" as="geometry"/>
                </mxCell>
                <mxCell id="660" value="" style="verticalLabelPosition=bottom;shadow=0;dashed=0;align=center;html=1;verticalAlign=top;strokeWidth=1;shape=mxgraph.mockup.markup.line;strokeColor=#999999;labelBorderColor=none;fontSize=17;fillColor=default;" vertex="1" parent="1">
                    <mxGeometry x="2233.84" y="630" width="230" height="20" as="geometry"/>
                </mxCell>
                <mxCell id="661" value="" style="verticalLabelPosition=bottom;shadow=0;dashed=0;align=center;html=1;verticalAlign=top;strokeWidth=1;shape=mxgraph.mockup.markup.line;strokeColor=#999999;labelBorderColor=none;fontSize=17;fillColor=default;" vertex="1" parent="1">
                    <mxGeometry x="2233.84" y="571" width="230" height="20" as="geometry"/>
                </mxCell>
                <mxCell id="662" value="" style="verticalLabelPosition=bottom;shadow=0;dashed=0;align=center;html=1;verticalAlign=top;strokeWidth=1;shape=mxgraph.mockup.markup.line;strokeColor=#999999;labelBorderColor=none;fontSize=17;fillColor=default;" vertex="1" parent="1">
                    <mxGeometry x="2233.84" y="600" width="230" height="20" as="geometry"/>
                </mxCell>
                <mxCell id="663" value="" style="verticalLabelPosition=bottom;shadow=0;dashed=0;align=center;html=1;verticalAlign=top;strokeWidth=1;shape=mxgraph.mockup.markup.line;strokeColor=#999999;labelBorderColor=none;fontSize=17;fillColor=default;" vertex="1" parent="1">
                    <mxGeometry x="2233.84" y="540" width="230" height="20" as="geometry"/>
                </mxCell>
                <mxCell id="664" value="" style="verticalLabelPosition=bottom;shadow=0;dashed=0;align=center;html=1;verticalAlign=top;strokeWidth=1;shape=mxgraph.mockup.markup.line;strokeColor=#999999;labelBorderColor=none;fontSize=17;fillColor=default;" vertex="1" parent="1">
                    <mxGeometry x="2233.84" y="510" width="230" height="20" as="geometry"/>
                </mxCell>
                <mxCell id="665" value="Addressability 16bit&lt;br&gt;" style="text;html=1;align=center;verticalAlign=middle;resizable=0;points=[];autosize=1;strokeColor=none;fillColor=none;fontSize=15;" vertex="1" parent="1">
                    <mxGeometry x="2130.48" y="770" width="150" height="30" as="geometry"/>
                </mxCell>
                <mxCell id="666" value="&lt;font style=&quot;font-size: 10px;&quot;&gt;$$Address$$&lt;/font&gt;" style="text;html=1;align=center;verticalAlign=middle;resizable=0;points=[];autosize=1;strokeColor=none;fillColor=none;fontSize=17;labelBackgroundColor=none;fontColor=default;" vertex="1" parent="1">
                    <mxGeometry x="2220" y="370" width="80" height="30" as="geometry"/>
                </mxCell>
                <mxCell id="667" value="&lt;span style=&quot;font-size: 18px;&quot;&gt;Memory&lt;/span&gt;" style="text;html=1;align=center;verticalAlign=middle;resizable=0;points=[];autosize=1;strokeColor=none;fillColor=none;fontSize=10;fontColor=default;" vertex="1" parent="1">
                    <mxGeometry x="2120" y="340" width="90" height="40" as="geometry"/>
                </mxCell>
                <mxCell id="582" value="" style="swimlane;startSize=0;" vertex="1" parent="1">
                    <mxGeometry x="1545" y="465" width="285" height="220" as="geometry"/>
                </mxCell>
                <mxCell id="587" value="Memory address" style="rounded=0;whiteSpace=wrap;html=1;fontSize=18;" vertex="1" parent="582">
                    <mxGeometry x="50" y="65" width="200" height="30" as="geometry"/>
                </mxCell>
                <mxCell id="590" value="&lt;font style=&quot;font-size: 16px;&quot;&gt;PC&lt;/font&gt;" style="text;html=1;align=center;verticalAlign=middle;resizable=0;points=[];autosize=1;strokeColor=none;fillColor=none;fontSize=18;" vertex="1" parent="582">
                    <mxGeometry y="60" width="50" height="40" as="geometry"/>
                </mxCell>
                <mxCell id="591" value="&lt;span style=&quot;font-size: 16px;&quot;&gt;IR&lt;/span&gt;" style="text;html=1;align=center;verticalAlign=middle;resizable=0;points=[];autosize=1;strokeColor=none;fillColor=none;fontSize=18;" vertex="1" parent="582">
                    <mxGeometry x="5" y="126" width="40" height="40" as="geometry"/>
                </mxCell>
                <mxCell id="608" value="" style="group" vertex="1" connectable="0" parent="582">
                    <mxGeometry x="15" y="-30" width="270" height="250" as="geometry"/>
                </mxCell>
                <mxCell id="586" value="&lt;font style=&quot;font-size: 18px;&quot;&gt;Control Unit&lt;/font&gt;" style="text;html=1;align=center;verticalAlign=middle;resizable=0;points=[];autosize=1;strokeColor=none;fillColor=none;" vertex="1" parent="608">
                    <mxGeometry width="120" height="40" as="geometry"/>
                </mxCell>
                <mxCell id="588" value="Instruction/Data" style="rounded=0;whiteSpace=wrap;html=1;fontSize=18;" vertex="1" parent="608">
                    <mxGeometry x="35" y="161" width="200" height="30" as="geometry"/>
                </mxCell>
                <mxCell id="668" value="" style="endArrow=classic;html=1;fontSize=16;exitX=1;exitY=0.5;exitDx=0;exitDy=0;entryX=0;entryY=0.5;entryDx=0;entryDy=0;" edge="1" parent="1" source="587" target="731">
                    <mxGeometry width="50" height="50" relative="1" as="geometry">
                        <mxPoint x="1850" y="610" as="sourcePoint"/>
                        <mxPoint x="2100" y="545" as="targetPoint"/>
                    </mxGeometry>
                </mxCell>
                <mxCell id="676" value="" style="group" vertex="1" connectable="0" parent="1">
                    <mxGeometry x="1545" y="730" width="300" height="30" as="geometry"/>
                </mxCell>
                <mxCell id="670" value="OP" style="rounded=0;whiteSpace=wrap;html=1;fontSize=18;" vertex="1" parent="676">
                    <mxGeometry width="60" height="30" as="geometry"/>
                </mxCell>
                <mxCell id="672" value="DR" style="rounded=0;whiteSpace=wrap;html=1;fontSize=18;" vertex="1" parent="676">
                    <mxGeometry x="60" width="60" height="30" as="geometry"/>
                </mxCell>
                <mxCell id="673" value="SR1" style="rounded=0;whiteSpace=wrap;html=1;fontSize=18;" vertex="1" parent="676">
                    <mxGeometry x="120" width="60" height="30" as="geometry"/>
                </mxCell>
                <mxCell id="674" value="000" style="rounded=0;whiteSpace=wrap;html=1;fontSize=18;" vertex="1" parent="676">
                    <mxGeometry x="180" width="60" height="30" as="geometry"/>
                </mxCell>
                <mxCell id="675" value="SR2" style="rounded=0;whiteSpace=wrap;html=1;fontSize=18;" vertex="1" parent="676">
                    <mxGeometry x="240" width="60" height="30" as="geometry"/>
                </mxCell>
                <mxCell id="677" value="" style="endArrow=none;html=1;fontSize=16;entryX=0.5;entryY=1;entryDx=0;entryDy=0;" edge="1" parent="1" target="673">
                    <mxGeometry width="50" height="50" relative="1" as="geometry">
                        <mxPoint x="1470" y="790" as="sourcePoint"/>
                        <mxPoint x="1700" y="790" as="targetPoint"/>
                        <Array as="points">
                            <mxPoint x="1695" y="790"/>
                        </Array>
                    </mxGeometry>
                </mxCell>
                <mxCell id="679" style="edgeStyle=none;html=1;exitX=0.5;exitY=1;exitDx=0;exitDy=0;entryX=0.883;entryY=0.982;entryDx=0;entryDy=0;entryPerimeter=0;fontSize=16;" edge="1" parent="1" source="670" target="600">
                    <mxGeometry relative="1" as="geometry">
                        <Array as="points">
                            <mxPoint x="1575" y="999"/>
                        </Array>
                    </mxGeometry>
                </mxCell>
                <mxCell id="680" value="" style="endArrow=none;html=1;fontSize=16;" edge="1" parent="1">
                    <mxGeometry width="50" height="50" relative="1" as="geometry">
                        <mxPoint x="940" y="840" as="sourcePoint"/>
                        <mxPoint x="1815" y="750" as="targetPoint"/>
                        <Array as="points">
                            <mxPoint x="1815" y="840"/>
                        </Array>
                    </mxGeometry>
                </mxCell>
                <mxCell id="681" style="edgeStyle=none;html=1;exitX=0.5;exitY=1;exitDx=0;exitDy=0;fontSize=16;" edge="1" parent="1" source="672">
                    <mxGeometry relative="1" as="geometry">
                        <mxPoint x="1040" y="470" as="targetPoint"/>
                        <Array as="points">
                            <mxPoint x="1635" y="780"/>
                            <mxPoint x="1440" y="780"/>
                            <mxPoint x="1440" y="380"/>
                            <mxPoint x="1040" y="380"/>
                        </Array>
                    </mxGeometry>
                </mxCell>
                <mxCell id="682" value="" style="shape=table;startSize=0;container=1;collapsible=0;childLayout=tableLayout;fontSize=16;" vertex="1" parent="1">
                    <mxGeometry x="955" y="970" width="90" height="110" as="geometry"/>
                </mxCell>
                <mxCell id="683" value="" style="shape=tableRow;horizontal=0;startSize=0;swimlaneHead=0;swimlaneBody=0;top=0;left=0;bottom=0;right=0;collapsible=0;dropTarget=0;fillColor=none;points=[[0,0.5],[1,0.5]];portConstraint=eastwest;fontSize=16;" vertex="1" parent="682">
                    <mxGeometry width="90" height="28" as="geometry"/>
                </mxCell>
                <mxCell id="684" value="&lt;font style=&quot;font-size: 10px;&quot;&gt;$$ADD$$&lt;/font&gt;" style="shape=partialRectangle;html=1;whiteSpace=wrap;connectable=0;overflow=hidden;fillColor=none;top=0;left=0;bottom=0;right=0;pointerEvents=1;fontSize=16;" vertex="1" parent="683">
                    <mxGeometry width="45" height="28" as="geometry">
                        <mxRectangle width="45" height="28" as="alternateBounds"/>
                    </mxGeometry>
                </mxCell>
                <mxCell id="685" value="&lt;font style=&quot;font-size: 10px;&quot;&gt;$$00$$&lt;/font&gt;" style="shape=partialRectangle;html=1;whiteSpace=wrap;connectable=0;overflow=hidden;fillColor=none;top=0;left=0;bottom=0;right=0;pointerEvents=1;fontSize=16;" vertex="1" parent="683">
                    <mxGeometry x="45" width="45" height="28" as="geometry">
                        <mxRectangle width="45" height="28" as="alternateBounds"/>
                    </mxGeometry>
                </mxCell>
                <mxCell id="686" value="" style="shape=tableRow;horizontal=0;startSize=0;swimlaneHead=0;swimlaneBody=0;top=0;left=0;bottom=0;right=0;collapsible=0;dropTarget=0;fillColor=none;points=[[0,0.5],[1,0.5]];portConstraint=eastwest;fontSize=16;" vertex="1" parent="682">
                    <mxGeometry y="28" width="90" height="27" as="geometry"/>
                </mxCell>
                <mxCell id="687" value="&lt;font style=&quot;font-size: 10px;&quot;&gt;$$AND$$&lt;/font&gt;" style="shape=partialRectangle;html=1;whiteSpace=wrap;connectable=0;overflow=hidden;fillColor=none;top=0;left=0;bottom=0;right=0;pointerEvents=1;fontSize=16;" vertex="1" parent="686">
                    <mxGeometry width="45" height="27" as="geometry">
                        <mxRectangle width="45" height="27" as="alternateBounds"/>
                    </mxGeometry>
                </mxCell>
                <mxCell id="688" value="&lt;font style=&quot;font-size: 10px;&quot;&gt;$$01$$&lt;/font&gt;" style="shape=partialRectangle;html=1;whiteSpace=wrap;connectable=0;overflow=hidden;fillColor=none;top=0;left=0;bottom=0;right=0;pointerEvents=1;fontSize=16;" vertex="1" parent="686">
                    <mxGeometry x="45" width="45" height="27" as="geometry">
                        <mxRectangle width="45" height="27" as="alternateBounds"/>
                    </mxGeometry>
                </mxCell>
                <mxCell id="689" value="" style="shape=tableRow;horizontal=0;startSize=0;swimlaneHead=0;swimlaneBody=0;top=0;left=0;bottom=0;right=0;collapsible=0;dropTarget=0;fillColor=none;points=[[0,0.5],[1,0.5]];portConstraint=eastwest;fontSize=16;" vertex="1" parent="682">
                    <mxGeometry y="55" width="90" height="28" as="geometry"/>
                </mxCell>
                <mxCell id="690" value="&lt;font size=&quot;1&quot;&gt;$$NOT \ A$$&lt;/font&gt;" style="shape=partialRectangle;html=1;whiteSpace=wrap;connectable=0;overflow=hidden;fillColor=none;top=0;left=0;bottom=0;right=0;pointerEvents=1;fontSize=16;" vertex="1" parent="689">
                    <mxGeometry width="45" height="28" as="geometry">
                        <mxRectangle width="45" height="28" as="alternateBounds"/>
                    </mxGeometry>
                </mxCell>
                <mxCell id="691" value="&lt;font style=&quot;font-size: 10px;&quot;&gt;$$10$$&lt;/font&gt;" style="shape=partialRectangle;html=1;whiteSpace=wrap;connectable=0;overflow=hidden;fillColor=none;top=0;left=0;bottom=0;right=0;pointerEvents=1;fontSize=16;" vertex="1" parent="689">
                    <mxGeometry x="45" width="45" height="28" as="geometry">
                        <mxRectangle width="45" height="28" as="alternateBounds"/>
                    </mxGeometry>
                </mxCell>
                <mxCell id="692" value="" style="shape=tableRow;horizontal=0;startSize=0;swimlaneHead=0;swimlaneBody=0;top=0;left=0;bottom=0;right=0;collapsible=0;dropTarget=0;fillColor=none;points=[[0,0.5],[1,0.5]];portConstraint=eastwest;fontSize=16;" vertex="1" parent="682">
                    <mxGeometry y="83" width="90" height="27" as="geometry"/>
                </mxCell>
                <mxCell id="693" value="&lt;font size=&quot;1&quot;&gt;$$PASS\ A$$&lt;/font&gt;" style="shape=partialRectangle;html=1;whiteSpace=wrap;connectable=0;overflow=hidden;fillColor=none;top=0;left=0;bottom=0;right=0;pointerEvents=1;fontSize=16;" vertex="1" parent="692">
                    <mxGeometry width="45" height="27" as="geometry">
                        <mxRectangle width="45" height="27" as="alternateBounds"/>
                    </mxGeometry>
                </mxCell>
                <mxCell id="694" value="&lt;font style=&quot;font-size: 10px;&quot;&gt;$$11$$&lt;/font&gt;" style="shape=partialRectangle;html=1;whiteSpace=wrap;connectable=0;overflow=hidden;fillColor=none;top=0;left=0;bottom=0;right=0;pointerEvents=1;fontSize=16;" vertex="1" parent="692">
                    <mxGeometry x="45" width="45" height="27" as="geometry">
                        <mxRectangle width="45" height="27" as="alternateBounds"/>
                    </mxGeometry>
                </mxCell>
                <mxCell id="727" value="&lt;font style=&quot;font-size: 10px;&quot;&gt;$$OP$$&lt;/font&gt;" style="text;html=1;align=center;verticalAlign=middle;resizable=0;points=[];autosize=1;strokeColor=none;fillColor=none;fontSize=16;" vertex="1" parent="1">
                    <mxGeometry x="950" y="950" width="60" height="30" as="geometry"/>
                </mxCell>
                <mxCell id="728" value="&lt;font style=&quot;font-size: 10px;&quot;&gt;$$Code$$&lt;/font&gt;" style="text;html=1;align=center;verticalAlign=middle;resizable=0;points=[];autosize=1;strokeColor=none;fillColor=none;fontSize=16;" vertex="1" parent="1">
                    <mxGeometry x="985" y="950" width="70" height="30" as="geometry"/>
                </mxCell>
                <mxCell id="735" style="edgeStyle=none;html=1;entryX=1;entryY=0.5;entryDx=0;entryDy=0;fontSize=26;exitX=0;exitY=0.5;exitDx=0;exitDy=0;" edge="1" parent="1" source="616" target="734">
                    <mxGeometry relative="1" as="geometry">
                        <mxPoint x="2460" y="480" as="sourcePoint"/>
                    </mxGeometry>
                </mxCell>
                <mxCell id="738" style="edgeStyle=none;html=1;exitX=1;exitY=0.5;exitDx=0;exitDy=0;fontSize=26;entryX=0;entryY=0.5;entryDx=0;entryDy=0;" edge="1" parent="1" source="731" target="616">
                    <mxGeometry relative="1" as="geometry">
                        <mxPoint x="2460" y="480" as="targetPoint"/>
                    </mxGeometry>
                </mxCell>
                <mxCell id="731" value="&lt;font style=&quot;font-size: 26px;&quot;&gt;MAR&lt;/font&gt;" style="rounded=0;whiteSpace=wrap;html=1;fontSize=18;" vertex="1" parent="1">
                    <mxGeometry x="1900" y="430" width="130" height="60" as="geometry"/>
                </mxCell>
                <mxCell id="736" style="edgeStyle=none;html=1;exitX=0;exitY=0.5;exitDx=0;exitDy=0;entryX=1;entryY=0.5;entryDx=0;entryDy=0;fontSize=26;" edge="1" parent="1" source="734" target="588">
                    <mxGeometry relative="1" as="geometry"/>
                </mxCell>
                <mxCell id="734" value="&lt;font style=&quot;font-size: 26px;&quot;&gt;MDR&lt;/font&gt;" style="rounded=0;whiteSpace=wrap;html=1;fontSize=18;" vertex="1" parent="1">
                    <mxGeometry x="1900" y="596" width="130" height="60" as="geometry"/>
                </mxCell>
                <mxCell id="739" value="&lt;font style=&quot;font-size: 20px;&quot;&gt;Fetch&lt;/font&gt;" style="text;html=1;align=center;verticalAlign=middle;resizable=0;points=[];autosize=1;strokeColor=none;fillColor=none;fontSize=26;" vertex="1" parent="1">
                    <mxGeometry x="2033" y="510" width="70" height="40" as="geometry"/>
                </mxCell>
            </root>
        </mxGraphModel>
    </diagram>
</mxfile>